<?xml version="1.0" standalone="no"?>
<!DOCTYPE svg PUBLIC "-//W3C//DTD SVG 20010904//EN"
 "http://www.w3.org/TR/2001/REC-SVG-20010904/DTD/svg10.dtd">
<svg version="1.0" xmlns="http://www.w3.org/2000/svg"
 width="1080.000000pt" height="1080.000000pt" viewBox="0 0 1080.000000 1080.000000"
 preserveAspectRatio="xMidYMid meet">
<metadata>
Created by potrace 1.14, written by Peter Selinger 2001-2017
</metadata>
<g transform="translate(0.000000,1080.000000) scale(0.100000,-0.100000)"
fill="#000000" stroke="none">
<path d="M5100 10219 c-25 -3 -72 -9 -105 -13 -57 -6 -173 -22 -205 -29 -8 -2
-33 -7 -55 -12 -22 -4 -74 -16 -115 -27 -41 -11 -83 -21 -92 -23 -9 -2 -25 -8
-35 -13 -10 -6 -20 -10 -23 -9 -3 0 -30 -8 -60 -18 -30 -11 -57 -20 -60 -20
-58 -15 -358 -165 -371 -187 -3 -5 -10 -10 -15 -10 -5 0 -28 -13 -51 -29 -23
-16 -44 -29 -48 -29 -3 0 -17 -10 -31 -22 -55 -50 -64 -58 -68 -58 -16 0 -191
-171 -266 -260 -30 -36 -58 -66 -62 -68 -5 -2 -8 -9 -8 -16 0 -6 -13 -26 -29
-43 -15 -17 -31 -38 -34 -46 -3 -8 -25 -18 -49 -22 -23 -4 -45 -9 -48 -10 -64
-23 -172 -76 -188 -91 -7 -8 -17 -14 -22 -14 -29 0 -200 -205 -200 -240 0 -5
-5 -10 -11 -10 -5 0 -8 -4 -5 -8 3 -5 -2 -21 -10 -36 -7 -16 -14 -37 -14 -47
0 -11 -4 -19 -8 -19 -4 0 -9 -8 -10 -17 -3 -32 -8 -52 -13 -57 -7 -7 -71 -19
-96 -17 -12 0 -25 -4 -28 -9 -4 -6 -11 -8 -16 -5 -5 4 -15 3 -21 -2 -7 -4 -18
-8 -24 -9 -22 -3 -134 -57 -134 -64 0 -4 -11 -12 -25 -18 -14 -7 -49 -33 -77
-59 -28 -27 -52 -47 -54 -45 -9 6 -84 -11 -84 -20 0 -5 -4 -7 -10 -3 -5 3 -17
1 -27 -4 -10 -5 -54 -22 -98 -37 -44 -16 -82 -32 -83 -36 -2 -5 -8 -6 -13 -2
-5 3 -9 0 -9 -5 0 -6 -3 -10 -7 -9 -15 3 -63 -14 -63 -23 0 -5 -3 -8 -7 -7
-11 2 -127 -55 -131 -64 -2 -5 -7 -8 -12 -8 -11 0 -120 -72 -192 -127 -92 -70
-274 -258 -272 -282 0 -3 -8 -13 -17 -21 -10 -8 -26 -31 -37 -50 -11 -19 -36
-63 -55 -97 -20 -35 -33 -63 -29 -63 4 0 1 -4 -7 -9 -8 -5 -15 -18 -16 -29 -1
-11 -7 -27 -14 -36 -8 -9 -11 -16 -7 -16 4 0 0 -13 -9 -30 -9 -16 -13 -30 -9
-30 4 0 1 -6 -5 -13 -6 -8 -13 -24 -15 -38 -3 -13 -5 -24 -6 -24 -2 0 -5 -14
-14 -53 -3 -13 -8 -33 -12 -45 -4 -12 -8 -33 -9 -47 -1 -14 -4 -32 -8 -40 -18
-46 -27 -453 -12 -560 4 -25 8 -61 9 -80 2 -19 5 -35 6 -35 4 0 11 -108 13
-212 1 -57 0 -103 -3 -103 -3 0 -5 -12 -5 -27 1 -16 -2 -32 -6 -38 -4 -5 -6
-21 -5 -35 1 -14 0 -29 -3 -35 -3 -5 -7 -16 -8 -22 -6 -24 -11 -48 -13 -53 -1
-3 -2 -9 -1 -14 1 -4 -3 -13 -8 -20 -5 -6 -11 -23 -13 -36 -2 -14 -9 -35 -16
-47 -7 -13 -10 -23 -6 -23 3 0 1 -7 -6 -15 -7 -8 -9 -15 -4 -15 5 0 2 -5 -6
-10 -8 -5 -15 -13 -15 -17 -2 -19 -19 -58 -31 -71 -8 -7 -12 -18 -9 -23 4 -5
1 -9 -4 -9 -6 0 -11 -7 -11 -15 0 -8 -4 -15 -10 -15 -5 0 -10 -7 -10 -15 0 -8
-5 -15 -11 -15 -5 0 -7 -4 -4 -10 3 -5 2 -10 -4 -10 -5 0 -12 -8 -15 -18 -4
-10 -15 -27 -25 -38 -58 -63 -258 -404 -244 -418 4 -3 1 -6 -6 -6 -7 0 -11 -6
-8 -14 3 -8 -1 -17 -9 -20 -9 -3 -13 -10 -10 -14 3 -5 -1 -19 -8 -33 -7 -13
-13 -27 -14 -31 -1 -5 -3 -10 -3 -13 -3 -13 -6 -21 -12 -35 -17 -43 -47 -166
-52 -215 -2 -16 -4 -30 -5 -30 -13 0 -19 -307 -8 -360 5 -22 10 -53 13 -70 12
-85 18 -110 26 -113 15 -6 -11 -32 -31 -32 -34 0 -113 -92 -97 -113 1 -2 -3
-10 -9 -18 -24 -33 -26 -304 -1 -337 5 -7 7 -15 4 -18 -8 -8 40 -140 69 -192
14 -23 22 -42 19 -42 -7 0 45 -79 72 -109 12 -14 20 -28 17 -33 -3 -4 2 -8 10
-8 9 0 16 -5 16 -11 0 -13 122 -137 170 -171 29 -21 45 -26 90 -24 30 2 66 9
80 16 14 7 26 13 28 12 1 -1 3 -2 5 -1 1 0 9 2 17 4 8 2 33 9 55 15 54 15 100
17 101 5 0 -5 4 -17 7 -25 6 -14 38 -124 43 -145 11 -51 17 -84 17 -107 0 -16
3 -28 6 -28 3 0 7 -17 8 -38 4 -66 8 -97 16 -109 4 -6 3 -14 -3 -18 -6 -4 -8
-11 -5 -16 7 -11 13 -40 20 -99 3 -25 8 -56 12 -70 3 -14 7 -36 9 -50 5 -37
14 -85 27 -145 2 -5 6 -16 10 -22 5 -7 6 -13 3 -13 -2 0 0 -15 5 -32 6 -18 12
-40 14 -48 6 -22 48 -120 69 -160 46 -86 140 -183 226 -233 30 -17 58 -31 62
-29 5 1 8 -3 8 -9 0 -6 7 -9 15 -5 8 3 15 2 15 -3 0 -7 27 -16 68 -22 4 0 12
-5 19 -11 7 -5 17 -7 22 -4 5 4 12 2 16 -3 3 -5 13 -10 23 -10 9 0 46 -4 82
-9 36 -5 75 -8 88 -7 12 1 22 -1 22 -4 0 -11 104 -7 112 4 5 7 8 6 8 -1 0 -10
47 -10 240 2 58 3 107 9 110 12 3 4 23 8 45 8 62 2 105 8 105 14 0 10 53 5 71
-6 8 -5 21 -25 29 -44 7 -19 19 -42 26 -50 7 -8 13 -19 14 -25 3 -21 140 -247
160 -265 3 -3 14 -18 24 -35 31 -48 266 -283 341 -340 93 -71 186 -119 297
-156 108 -35 137 -39 283 -43 116 -3 233 14 350 53 33 10 83 23 110 27 28 4
55 8 60 10 113 25 125 25 163 -6 67 -53 211 -138 290 -171 81 -34 217 -74 292
-87 58 -9 479 -9 544 0 74 11 223 57 296 91 36 17 67 31 70 31 23 6 185 111
221 143 25 23 45 23 154 -1 6 -2 33 -6 60 -10 28 -4 75 -16 105 -26 30 -10 82
-23 115 -30 33 -6 77 -15 97 -20 64 -14 294 -3 348 16 8 3 26 8 39 10 75 15
245 96 321 154 95 73 317 295 357 357 10 15 23 33 29 38 16 14 104 154 104
165 0 5 6 15 13 22 13 13 40 67 41 81 1 4 7 11 14 16 8 5 14 11 14 14 0 19 12
47 20 47 5 0 7 4 4 8 -2 4 -1 14 3 20 9 15 91 22 91 9 0 -5 11 -7 25 -5 14 3
25 2 25 -1 0 -4 19 -6 43 -6 23 0 47 -3 54 -8 7 -5 35 -7 63 -5 27 1 50 0 50
-4 0 -4 19 -8 43 -8 23 0 85 -1 137 -3 52 -2 100 1 107 5 6 5 14 5 17 -1 4 -5
16 -8 29 -5 12 2 53 7 91 10 38 3 79 9 91 14 13 5 25 7 27 4 3 -2 23 2 46 10
22 8 43 12 46 9 3 -4 6 -1 6 6 0 8 7 11 15 7 8 -3 15 -2 15 2 0 4 8 8 18 9 55
5 272 165 272 202 0 6 7 11 17 11 9 0 13 3 10 6 -4 4 2 19 12 33 10 14 24 41
32 58 8 18 18 33 22 33 5 0 6 4 3 8 -3 5 1 19 7 33 14 27 36 94 42 124 2 11 4
20 5 20 2 0 8 26 24 105 11 54 15 71 22 82 5 7 3 8 -6 3 -9 -5 -11 -4 -6 3 10
17 18 60 29 167 2 11 6 26 10 33 5 7 3 12 -4 12 -8 0 -8 4 -1 13 10 12 11 19
15 104 1 24 6 43 11 43 5 0 7 3 4 6 -4 3 -2 19 2 35 6 20 5 29 -3 29 -8 0 -8
3 -2 8 10 7 16 24 20 57 1 11 4 27 7 35 3 8 13 42 23 75 10 33 23 65 27 72 9
11 48 14 48 3 0 -3 11 -6 24 -6 14 -1 55 -12 93 -25 70 -23 173 -33 173 -17 0
5 4 7 8 4 5 -3 31 15 58 40 27 26 50 44 50 43 1 -2 18 16 39 41 20 24 46 52
56 61 11 9 19 21 19 26 0 5 8 18 18 29 24 26 71 100 74 116 2 7 5 15 8 18 10
9 60 130 53 130 -3 0 0 7 7 15 6 8 9 19 5 25 -3 5 -2 10 4 10 5 0 10 8 10 18
0 9 5 41 10 70 12 66 7 231 -9 293 -14 56 -64 116 -105 128 -21 6 -29 13 -28
27 4 25 10 63 17 95 3 14 7 39 9 55 2 17 6 34 8 39 7 13 3 289 -5 345 -12 79
-23 133 -33 160 -4 8 -7 23 -8 33 -2 9 -4 19 -5 22 -1 3 -3 8 -5 13 -1 4 -5
16 -9 27 -4 11 -12 34 -18 50 -11 33 -15 42 -54 130 -15 33 -27 63 -26 67 1 3
-5 12 -13 18 -8 7 -15 17 -15 24 0 13 -71 130 -82 134 -4 2 -6 8 -2 13 3 5 0
9 -5 9 -6 0 -11 5 -11 12 0 6 -12 27 -27 47 -16 20 -32 43 -38 52 -5 8 -32 49
-60 90 -42 62 -85 140 -89 159 -1 3 -6 12 -11 20 -16 25 -87 230 -80 230 2 0
-3 20 -10 44 -8 24 -11 47 -8 49 3 3 1 12 -3 19 -9 13 -13 72 -15 183 -1 57 4
125 16 225 4 25 8 61 10 80 2 19 4 35 5 35 5 0 6 411 1 420 -3 6 -7 24 -8 40
-3 45 -26 176 -33 195 -1 3 -2 9 -1 13 1 4 -4 17 -10 29 -6 11 -13 35 -16 51
-3 17 -22 70 -43 119 -20 48 -35 90 -32 93 3 3 0 5 -7 5 -7 0 -9 5 -6 10 3 6
3 10 -2 10 -4 0 -19 23 -32 50 -14 28 -29 50 -34 50 -4 0 -6 4 -3 9 4 5 3 11
-1 13 -5 1 -21 23 -38 47 -16 25 -41 56 -54 70 -13 15 -32 40 -42 56 -11 17
-19 27 -19 23 0 -3 -26 19 -58 50 -63 62 -102 96 -148 128 -110 78 -134 93
-134 87 0 -5 -5 0 -11 10 -6 9 -14 15 -20 12 -5 -4 -9 -1 -9 4 0 6 -9 11 -20
11 -11 0 -20 5 -20 10 0 6 -7 10 -15 10 -8 0 -15 5 -15 11 0 5 -4 7 -10 4 -5
-3 -10 -1 -10 5 0 6 -4 9 -9 5 -5 -3 -17 2 -25 11 -9 8 -16 13 -16 11 0 -3
-42 13 -92 35 -89 39 -118 49 -145 50 -7 1 -13 6 -13 11 0 5 -7 7 -15 3 -8 -3
-15 -1 -15 4 0 6 -10 10 -23 10 -13 0 -27 3 -31 7 -7 7 -27 12 -63 16 -13 1
-23 6 -23 11 0 4 -6 6 -14 3 -7 -3 -17 -2 -22 3 -5 4 -25 11 -44 14 -53 8
-123 28 -137 38 -7 5 -17 7 -23 3 -5 -3 -10 -3 -10 2 0 8 -62 33 -87 35 -7 1
-13 5 -13 9 0 4 -11 10 -25 13 -13 3 -41 18 -62 32 -21 14 -51 32 -68 40 -16
8 -42 24 -57 36 -14 13 -36 30 -49 38 -55 36 -242 234 -268 283 -8 15 -18 27
-23 27 -4 0 -8 4 -8 9 0 5 -18 38 -40 72 -22 35 -44 73 -49 84 -9 21 -120 171
-169 228 -121 143 -322 311 -492 411 -173 102 -395 199 -530 231 -8 2 -60 15
-115 29 -55 14 -116 28 -135 31 -19 3 -42 8 -50 10 -8 2 -37 7 -65 10 -27 3
-68 8 -90 11 -163 21 -603 29 -715 13z"/>
</g>
</svg>
